<?xml version="1.0" standalone="no"?>
<!DOCTYPE svg PUBLIC "-//W3C//DTD SVG 20010904//EN"
 "http://www.w3.org/TR/2001/REC-SVG-20010904/DTD/svg10.dtd">
<svg version="1.0" xmlns="http://www.w3.org/2000/svg"
 width="821.000000pt" height="821.000000pt" viewBox="0 0 821.000000 821.000000"
 preserveAspectRatio="xMidYMid meet">
<metadata>
Created by potrace 1.14, written by Peter Selinger 2001-2017
</metadata>
<g transform="translate(0.000000,821.000000) scale(0.100000,-0.100000)"
fill="#000000" stroke="none">
<path d="M1260 8029 c-82 -8 -246 -39 -325 -62 -52 -15 -170 -71 -190 -91 -7
-6 -31 -22 -55 -36 -93 -55 -233 -181 -321 -290 -11 -14 -29 -35 -39 -48 -28
-35 -100 -186 -132 -277 -16 -44 -38 -129 -49 -190 -19 -107 -20 -126 -9 -690
6 -319 16 -701 22 -850 16 -399 22 -1812 9 -2215 -6 -190 -17 -500 -25 -690
-21 -495 -31 -1417 -16 -1505 27 -171 99 -335 211 -485 174 -233 342 -358 590
-436 67 -21 115 -28 244 -35 88 -4 1420 -8 2960 -8 2965 -1 2976 -1 3110 44
188 63 284 114 397 208 204 170 327 349 413 601 31 91 38 130 46 235 5 72 4
819 -3 1756 -6 897 -8 2028 -5 2515 6 888 -3 1505 -22 1570 -5 19 -17 78 -27
130 -9 52 -25 112 -35 132 -11 21 -19 44 -19 53 0 8 -4 15 -9 15 -5 0 -15 16
-21 35 -6 19 -16 33 -21 30 -5 -4 -6 0 -3 8 3 8 -2 21 -10 30 -9 9 -16 19 -16
24 -1 31 -192 222 -281 280 -35 24 -68 46 -74 51 -29 24 -206 107 -250 118
-17 4 -35 11 -41 15 -14 11 -232 48 -359 61 -86 8 -394 5 -477 -5 -16 -2 -83
-4 -150 -5 -67 -1 -118 -5 -115 -9 4 -3 177 -7 384 -8 343 -2 657 -17 675 -34
4 -3 -145 -6 -330 -6 -185 1 -241 -1 -124 -2 136 -2 211 -7 207 -13 -3 -6 6
-11 22 -11 15 -1 3 -5 -27 -10 -30 -5 -137 -8 -237 -7 -147 1 -183 4 -183 14
0 8 -4 14 -10 14 -5 0 -10 -7 -10 -16 0 -13 -11 -15 -67 -12 -57 2 -69 6 -75
23 -5 18 -6 18 -7 -3 -1 -23 -4 -23 -73 -20 -61 2 -75 6 -83 23 -8 15 -22 21
-55 22 -31 2 -39 0 -25 -6 10 -4 30 -7 42 -5 17 2 23 -3 23 -18 0 -18 -5 -20
-67 -17 -57 3 -69 7 -75 24 -5 18 -6 18 -7 -3 -1 -23 -3 -24 -78 -20 -49 3
-77 8 -76 15 5 23 -26 34 -84 30 l-58 -3 63 -2 c55 -2 62 -4 62 -22 0 -18 -7
-20 -69 -20 -65 0 -70 2 -73 23 -3 20 -8 22 -71 23 -37 1 -70 -2 -72 -6 -3 -5
27 -7 65 -6 62 2 70 0 70 -17 0 -16 -8 -18 -75 -15 -66 3 -75 6 -84 26 -9 20
-18 22 -78 22 -48 0 -64 -3 -53 -10 8 -5 39 -10 68 -10 40 0 52 -3 52 -16 0
-13 -12 -15 -67 -13 -59 2 -69 5 -75 23 -6 20 -6 20 -7 -2 -1 -22 -4 -23 -73
-21 -64 2 -74 5 -80 23 -6 20 -6 20 -7 -2 -1 -22 -4 -23 -76 -21 -64 2 -75 4
-75 19 0 22 -20 30 -77 30 -59 0 -52 -8 10 -11 38 -2 47 -6 47 -22 0 -16 -7
-18 -67 -16 -59 2 -69 5 -75 23 -6 20 -6 20 -7 -1 -1 -21 -6 -23 -53 -23 -70
0 -95 8 -101 31 -4 15 -14 19 -49 18 -33 0 -38 -2 -23 -9 11 -5 30 -9 43 -9
13 -1 22 -7 22 -17 0 -13 -12 -15 -72 -13 -69 2 -73 3 -79 28 l-7 26 -1 -28
-1 -28 -75 2 c-51 2 -75 7 -75 16 0 6 -5 15 -12 19 -8 5 -9 0 -5 -15 5 -22 3
-22 -66 -20 -63 2 -73 5 -79 23 -6 20 -6 20 -7 -2 -1 -22 -4 -23 -73 -21 -64
2 -74 5 -80 23 -6 20 -6 20 -7 -2 -1 -23 -3 -24 -73 -21 -63 3 -74 6 -80 24
-6 19 -6 18 -7 -3 -1 -22 -4 -23 -76 -21 -67 2 -75 4 -75 21 0 18 6 20 64 17
36 -2 68 0 72 4 4 4 -58 6 -137 5 -79 -1 -114 -3 -76 -5 59 -4 67 -6 67 -24 0
-19 -5 -20 -74 -18 -69 3 -75 5 -81 26 -5 20 -11 23 -53 21 l-47 -1 43 -4 c34
-3 42 -8 42 -24 0 -18 -6 -20 -70 -18 -56 2 -70 5 -71 18 0 14 -1 14 -7 0 -6
-13 -22 -16 -77 -16 -62 1 -71 3 -77 21 -6 20 -6 19 -7 -2 -1 -23 -3 -24 -73
-21 -63 3 -74 6 -80 24 -6 19 -6 19 -7 -2 -1 -21 -5 -22 -76 -20 -59 2 -75 5
-75 17 -1 11 -3 11 -11 -3 -9 -16 -21 -18 -77 -15 -57 2 -68 6 -74 23 -6 19
-6 18 -7 -3 -1 -22 -4 -23 -75 -21 -65 1 -75 4 -84 23 -11 21 -11 21 -11 -2
-1 -22 -4 -23 -71 -21 -60 2 -70 5 -70 20 0 11 9 19 25 22 23 4 23 4 -2 3 -21
-1 -29 -7 -31 -24 -3 -22 -7 -23 -75 -21 -64 2 -73 5 -77 23 -5 19 -14 21 -80
24 -56 2 -72 0 -64 -8 7 -7 36 -11 73 -8 53 3 61 1 61 -14 0 -16 -10 -18 -74
-18 -69 0 -75 2 -79 23 l-4 22 -2 -23 c-1 -22 -4 -23 -77 -21 -72 2 -76 3 -72
24 5 21 2 22 -66 22 l-71 -1 63 -3 c54 -3 62 -6 62 -24 0 -19 -6 -20 -72 -18
-64 2 -74 5 -80 23 -6 20 -6 20 -7 -2 -1 -23 -3 -24 -73 -21 -63 3 -74 6 -80
24 -6 20 -6 20 -7 0 -1 -19 -8 -20 -264 -20 -189 0 -269 -3 -287 -12 -14 -7
-32 -13 -40 -12 -9 0 -11 2 -3 5 7 3 9 12 6 20 -6 16 12 19 22 4 3 -5 11 -10
18 -10 6 0 2 6 -9 14 -10 8 -29 12 -41 9 -13 -3 -23 -1 -23 4 0 6 90 11 227
12 125 1 229 4 232 7 2 2 -117 5 -265 5 -181 1 -253 4 -219 10 114 19 575 37
658 26 15 -3 57 -1 93 2 36 4 67 5 69 2 5 -10 290 -4 295 5 3 5 -65 10 -151
10 -87 1 -178 5 -204 9 -35 5 -50 3 -57 -7 -7 -10 -11 -10 -15 0 -5 14 -388
15 -523 1z m5817 -95 c-3 -3 -12 -4 -19 -1 -8 3 -5 6 6 6 11 1 17 -2 13 -5z
m-5940 -10 c-3 -3 -12 -4 -19 -1 -8 3 -5 6 6 6 11 1 17 -2 13 -5z m5908 -4 c3
-5 1 -10 -4 -10 -6 0 -11 5 -11 10 0 6 2 10 4 10 3 0 8 -4 11 -10z m25 -34
c52 -10 139 -34 193 -52 54 -19 103 -32 110 -28 7 4 9 3 4 -1 -4 -5 22 -23 57
-41 71 -35 129 -78 224 -169 35 -33 67 -60 72 -60 5 0 12 -4 17 -9 5 -5 3 -6
-4 -2 -22 12 -15 -3 28 -60 50 -68 111 -185 139 -268 52 -152 50 -36 45 -3036
-3 -1532 -7 -2841 -10 -2910 -7 -212 -67 -392 -181 -547 -141 -192 -354 -349
-559 -413 l-70 -21 -3031 0 -3032 0 -75 25 c-99 33 -246 106 -297 147 -33 27
-38 35 -27 47 10 13 9 14 -7 5 -16 -9 -26 -6 -53 14 -18 14 -30 30 -26 36 3 5
1 7 -4 4 -21 -13 -171 182 -157 204 4 7 3 10 -4 5 -16 -10 -107 167 -130 254
-11 41 -23 91 -26 110 -2 19 -6 1331 -7 2915 -2 2689 -1 2885 15 2960 37 175
84 291 172 428 45 70 243 277 265 277 6 0 23 10 39 23 48 41 184 106 276 132
200 56 10 53 3099 51 2723 -1 2854 -2 2945 -20z m609 -279 c0 -9 -2 -8 -6 1
-2 6 -10 9 -15 6 -7 -4 -8 -2 -4 5 9 13 26 5 25 -12z m28 -12 c0 -8 -4 -12 -9
-9 -5 3 -6 10 -3 15 9 13 12 11 12 -6z m201 -330 c-3 -3 -9 2 -12 12 -6 14 -5
15 5 6 7 -7 10 -15 7 -18z"/>
<path d="M1162 7804 c-86 -14 -238 -68 -308 -109 -95 -56 -205 -148 -271 -226
-171 -205 -231 -353 -254 -629 -14 -156 -24 -2118 -24 -4275 1 -1263 2 -1407
17 -1470 15 -63 36 -122 82 -227 9 -20 14 -43 13 -50 -2 -7 -2 -9 1 -4 2 5 19
-14 36 -42 17 -28 58 -81 91 -118 33 -38 60 -73 60 -79 0 -5 7 -10 15 -10 8 0
15 -5 15 -12 0 -6 4 -15 9 -20 5 -5 6 -3 2 5 -11 18 9 15 25 -5 22 -25 170
-119 234 -148 32 -14 87 -35 124 -47 l66 -23 2958 -3 c2879 -2 2960 -2 3051
17 111 22 256 84 355 149 89 59 210 177 262 256 60 91 124 230 151 326 l23 85
3 2580 c1 1419 -2 2744 -7 2945 -8 353 -10 368 -35 455 -32 108 -88 214 -163
313 -62 81 -131 145 -146 135 -6 -3 -7 -1 -3 5 7 12 -47 56 -129 103 -79 46
-151 76 -255 108 l-85 26 -2915 2 c-2450 1 -2928 -1 -2998 -13z m5758 -474
c220 -28 447 -215 513 -425 38 -118 39 -161 33 -2805 -4 -1416 -9 -2606 -12
-2645 -14 -178 -88 -359 -190 -461 -99 -99 -242 -171 -384 -193 -56 -9 -771
-11 -2820 -9 -2573 3 -2749 4 -2803 20 -186 57 -314 162 -393 323 -81 167 -74
-68 -81 2855 -4 1851 -2 2638 6 2718 29 308 179 502 456 593 l100 33 280 6
c536 10 5205 1 5295 -10z"/>
<path d="M1355 7255 c-171 -27 -296 -104 -387 -238 -58 -86 -76 -132 -93 -245
-18 -121 -18 -135 -4 -127 6 4 8 13 5 21 -3 8 -1 26 5 41 7 20 13 23 21 15 9
-9 9 -15 0 -24 -7 -7 -12 -19 -11 -27 0 -12 3 -11 10 4 8 17 9 17 4 -5 -2 -14
-5 -47 -5 -73 0 -33 -3 -46 -11 -41 -9 5 -10 -6 -5 -40 8 -50 0 -109 -14 -101
-12 8 -20 -1041 -23 -3125 -2 -1825 -1 -1928 16 -1990 29 -106 46 -141 103
-217 89 -119 203 -190 349 -218 117 -23 5499 -22 5593 0 276 66 450 276 492
596 8 60 10 837 8 2684 l-3 2600 -26 86 c-62 212 -240 381 -444 424 -61 13
-435 15 -2785 14 -2149 -1 -2732 -4 -2795 -14z m-478 -877 c-3 -8 -6 -5 -6 6
-1 11 2 17 5 13 3 -3 4 -12 1 -19z m3638 -263 c-24 -8 -156 -12 -144 -4 8 5
46 8 84 8 39 0 66 -2 60 -4z m633 -2 c-103 -2 -274 -2 -380 0 -106 1 -22 2
187 2 209 0 296 -1 193 -2z m285 -133 c218 -114 444 -325 527 -489 58 -116
107 -364 97 -494 -14 -210 -156 -432 -368 -577 -96 -66 -143 -83 -196 -74 -33
6 -32 6 48 55 44 26 112 74 150 105 145 118 203 205 255 381 22 75 26 107 25
213 -1 221 -56 363 -205 528 -82 91 -266 239 -280 225 -3 -3 -6 -2 -6 3 0 11
-71 54 -86 54 -5 -1 5 -9 23 -18 17 -9 45 -29 61 -44 17 -14 33 -24 36 -21 3
4 6 -1 6 -11 0 -9 5 -14 10 -11 6 3 10 2 10 -2 0 -5 15 -16 33 -26 48 -26 197
-177 254 -257 41 -58 115 -240 97 -240 -2 0 -23 42 -47 93 -49 101 -143 225
-234 307 -103 92 -122 88 -27 -6 124 -123 153 -164 204 -294 24 -61 11 -67
-16 -8 -68 151 -199 295 -341 374 -29 16 -54 35 -55 43 -2 8 -12 15 -23 17
-11 1 -31 6 -45 9 -14 4 1 -9 33 -28 257 -159 422 -386 458 -630 15 -100 7
-154 -32 -228 -34 -62 -160 -219 -225 -280 -59 -54 -101 -102 -170 -196 -70
-92 -81 -137 -46 -179 17 -21 121 -97 299 -219 90 -62 263 -219 263 -239 -1
-6 -13 3 -28 20 -47 53 -175 159 -268 221 -162 109 -216 147 -257 184 -38 33
-41 40 -39 80 3 46 51 142 86 170 17 14 18 19 7 33 -9 10 -10 16 -2 16 6 0 11
-5 11 -11 0 -6 13 2 30 18 21 19 28 34 24 48 -4 14 -3 16 4 6 7 -10 11 -10 17
-1 4 7 2 16 -6 21 -7 4 -10 11 -6 16 5 4 12 1 18 -7 8 -13 10 -13 19 0 7 11 5
17 -8 22 -11 5 -8 7 12 5 16 -1 31 4 33 11 3 8 -2 10 -14 6 -14 -5 -15 -4 -3
4 8 6 18 8 22 6 10 -7 39 21 31 30 -3 3 -12 1 -20 -5 -7 -6 -13 -7 -13 -2 0
15 31 53 43 52 9 0 9 -2 0 -6 -7 -2 -13 -9 -13 -14 0 -4 7 -5 17 -2 12 5 14 3
8 -8 -7 -12 -6 -11 9 1 11 8 14 16 7 18 -6 2 -11 11 -11 20 0 15 2 15 11 2 8
-11 9 -7 4 17 -4 19 -2 34 5 38 9 5 10 0 6 -16 -3 -13 -3 -18 0 -11 5 10 9 10
20 1 9 -8 14 -8 14 -1 0 6 -4 14 -10 17 -13 8 -7 48 8 53 7 2 12 9 12 15 0 8
-3 8 -11 0 -15 -15 -39 -5 -39 15 0 12 -3 13 -12 4 -8 -8 -17 -8 -37 3 -14 7
-59 19 -99 26 -63 11 -75 10 -83 -2 -5 -8 -9 -11 -9 -6 0 4 -11 0 -24 -8 -17
-12 -22 -22 -18 -38 5 -20 4 -21 -13 -7 -17 14 -18 13 -13 -6 4 -17 2 -20 -13
-17 -13 4 -27 -9 -52 -48 -52 -81 -113 -156 -192 -234 -68 -68 -191 -177 -205
-183 -13 -5 -22 49 -11 62 6 7 8 15 5 18 -3 3 21 34 52 69 l58 64 -67 -65
c-54 -52 -69 -62 -79 -51 -11 10 -10 12 2 9 13 -3 15 49 16 412 0 316 -1 371
-6 230 -4 -102 -8 -230 -9 -284 -1 -89 -3 -98 -15 -80 -14 18 -15 18 -22 1 -3
-10 -4 -21 0 -24 3 -4 6 2 6 12 0 18 1 18 15 -1 17 -22 19 -53 5 -74 -8 -11
-9 -7 -5 15 l6 30 -15 -25 c-8 -14 -13 -36 -10 -50 5 -22 4 -23 -6 -6 -9 13
-9 24 -1 43 13 28 14 44 3 25 -7 -9 -15 -10 -35 -3 -23 9 -27 16 -27 51 0 29
-4 40 -15 40 -23 0 -18 30 8 40 17 7 18 9 5 9 -10 1 -18 5 -18 10 0 13 -70 19
-71 6 -1 -5 -5 1 -9 15 -7 23 -8 23 -9 4 -1 -12 -8 -25 -17 -28 -9 -3 -14 -12
-11 -19 8 -21 -11 -46 -32 -40 -16 4 -21 -3 -30 -39 l-11 -43 5 40 c3 26 1 35
-4 26 -7 -11 -10 -9 -14 10 -2 13 -2 3 0 -23 3 -30 1 -48 -6 -48 -6 0 -12 29
-14 68 -2 55 -4 49 -6 -38 -2 -73 -6 -96 -11 -75 -6 26 -8 22 -9 -23 0 -29 2
-51 7 -49 4 3 5 -54 2 -126 l-4 -132 -6 95 c-6 93 -6 94 -11 35 l-6 -60 3 65
c2 36 4 74 4 85 5 101 -14 1242 -20 1249 -22 23 -30 -11 -30 -128 0 -68 -3
-139 -7 -157 -7 -33 -7 -33 -15 -9 -4 15 -5 0 -2 -35 3 -33 6 -80 6 -105 0
-41 1 -42 8 -15 6 22 8 11 8 -45 0 -51 -3 -67 -8 -50 -6 20 -8 14 -9 -28 -1
-33 3 -51 9 -47 6 4 9 -12 9 -42 -2 -47 -2 -47 -9 -13 -6 30 -8 25 -11 -35 -2
-38 -6 31 -10 155 -4 124 -12 288 -17 365 -6 77 -12 158 -13 180 l-1 40 -8
-40 c-5 -22 -10 -857 -12 -1855 l-3 -1815 -26 0 -26 0 -6 644 c-4 354 -7 1196
-7 1871 l0 1226 59 59 c33 33 74 65 93 72 24 9 152 12 494 10 l460 -2 67 -35z
m-2295 -37 c-49 -2 -127 -2 -175 0 -49 1 -9 3 87 3 96 0 136 -2 88 -3z m197
-125 c30 -29 61 -99 230 -523 205 -514 408 -1031 470 -1200 21 -55 53 -129 71
-164 33 -63 34 -64 15 -90 -10 -14 -23 -39 -29 -56 -6 -16 -11 -23 -11 -13 -1
9 -16 54 -35 100 -19 45 -76 189 -126 318 -50 129 -113 289 -140 355 -27 66
-69 172 -94 235 -24 63 -83 210 -131 325 -47 116 -114 282 -149 370 -64 162
-102 244 -130 280 -10 12 -7 -1 8 -35 13 -30 47 -118 75 -195 29 -77 79 -205
111 -285 75 -184 122 -312 111 -305 -5 2 -21 35 -37 72 -16 38 -32 70 -35 73
-4 3 -11 18 -14 33 -4 15 -11 30 -16 33 -5 3 -9 12 -9 20 0 8 -16 48 -35 89
-19 41 -38 87 -41 102 -4 15 -24 62 -46 104 -21 42 -38 84 -38 93 0 9 -4 16
-10 16 -5 0 -10 7 -10 15 0 20 -19 52 -48 85 l-24 25 7 -35 c10 -50 44 -148
68 -194 10 -22 30 -69 43 -105 14 -36 29 -75 34 -86 25 -57 130 -331 130 -340
-1 -13 -31 48 -54 110 -11 28 -34 84 -53 125 -19 41 -41 89 -49 107 -8 17 -14
35 -14 40 -1 12 -40 60 -40 48 0 -6 4 -15 9 -20 4 -6 14 -32 21 -60 7 -27 21
-66 31 -85 34 -65 99 -274 89 -284 -13 -13 -13 -46 0 -46 6 0 10 10 10 22 0
27 5 21 14 -15 4 -16 3 -26 -1 -24 -4 3 -9 -7 -9 -21 -1 -15 1 -21 3 -14 3 6
11 12 19 12 10 0 14 -12 14 -40 0 -22 5 -40 11 -40 6 0 8 10 5 23 -5 19 -5 20
3 2 20 -48 29 -85 20 -91 -5 -3 -9 -13 -8 -22 0 -14 2 -13 9 3 8 19 9 19 9 -2
1 -27 -15 -38 -33 -23 -11 8 -15 8 -19 -2 -3 -7 -6 3 -7 22 -1 29 -3 31 -10
15 -8 -19 -8 -19 -18 5 -8 18 -11 20 -11 8 -1 -23 -24 -19 -34 6 -4 10 -13 16
-21 13 -8 -3 -16 -1 -19 6 -5 17 -57 -8 -57 -28 0 -8 -5 -15 -11 -15 -7 0 -9
-11 -5 -30 3 -19 1 -30 -5 -30 -8 0 -8 -4 0 -13 14 -17 4 -27 -25 -27 -29 0
-38 34 -14 55 10 9 20 27 23 41 3 20 0 24 -19 24 -21 0 -24 5 -26 43 -1 23 -4
4 -7 -43 -3 -47 -3 -87 0 -90 4 -3 10 -20 14 -37 3 -18 14 -37 23 -42 9 -5 14
-13 10 -16 -8 -8 -32 13 -41 35 -3 9 -6 6 -6 -10 -2 -53 -17 -50 -45 8 -55
112 -133 192 -187 192 -29 0 -148 -272 -245 -559 -21 -63 -40 -108 -42 -101
-2 6 0 22 6 33 24 54 32 80 32 109 0 17 3 28 7 24 4 -4 15 19 25 50 15 46 16
64 7 96 -6 22 -8 42 -5 45 2 3 8 -12 12 -32 4 -22 10 -33 16 -27 5 5 4 19 -3
35 -9 20 -8 31 5 58 16 33 22 74 9 66 -12 -8 -12 45 -1 67 7 12 7 16 0 12 -16
-10 -23 10 -16 39 5 20 11 25 25 22 12 -3 19 0 19 9 0 8 -5 14 -11 14 -5 0 -8
4 -4 9 7 12 -27 23 -68 21 -85 -5 -127 0 -127 15 0 8 -4 15 -10 15 -5 0 -10
-4 -10 -9 0 -6 5 -13 10 -16 6 -3 10 -11 10 -16 0 -6 -5 -7 -12 -3 -7 5 -9 2
-5 -9 4 -12 1 -15 -14 -12 -16 3 -19 0 -14 -15 5 -15 3 -18 -9 -14 -17 7 -22
-15 -7 -31 5 -6 5 -19 1 -30 -6 -16 -9 -11 -15 23 -5 31 -3 49 8 65 8 12 18
37 22 55 3 18 11 30 16 27 5 -4 6 1 3 10 -4 8 -2 21 3 28 21 26 103 280 103
317 0 21 4 41 9 44 4 3 6 -7 3 -22 -8 -47 8 -18 38 69 34 96 37 111 9 54 l-19
-40 4 48 c5 65 -6 50 -38 -53 -15 -47 -33 -96 -40 -110 -20 -36 -61 -143 -91
-235 -15 -44 -48 -132 -75 -195 -26 -63 -53 -132 -59 -152 -7 -21 -17 -40 -22
-43 -5 -4 -9 -13 -9 -22 0 -23 -60 -156 -72 -161 -5 -2 -8 -10 -8 -19 0 -8 -7
-29 -14 -46 -8 -18 -34 -83 -56 -146 -23 -63 -55 -141 -70 -175 -15 -34 -41
-99 -58 -146 -68 -193 -115 -302 -124 -288 -7 9 -8 6 -4 -11 3 -17 2 -21 -6
-13 -12 12 -1 55 13 47 9 -6 14 14 11 48 -1 11 2 15 9 11 8 -4 9 1 5 17 -3 13
-3 17 1 9 4 -9 17 16 34 65 37 108 75 210 98 265 11 25 34 83 51 130 18 47 36
94 41 105 14 34 139 356 139 360 0 2 38 100 84 217 112 284 164 423 183 483 8
28 28 77 43 110 32 69 70 177 70 200 0 8 5 15 10 15 6 0 10 8 10 18 0 11 13
59 30 108 50 151 8 67 -93 -188 -53 -134 -171 -432 -262 -663 -92 -231 -285
-717 -430 -1080 -145 -363 -286 -721 -313 -795 -28 -74 -65 -169 -82 -210 -17
-41 -52 -129 -77 -195 -139 -371 -177 -452 -222 -478 -17 -10 -29 -23 -25 -28
3 -6 170 -9 427 -9 399 1 422 0 422 -17 0 -16 -16 -19 -195 -24 -107 -4 -299
-7 -426 -8 -220 -1 -233 0 -258 20 -14 11 -26 25 -26 31 0 6 22 49 50 97 43
74 158 350 295 706 21 55 60 156 88 225 27 69 66 172 87 230 21 58 99 260 174
450 76 190 151 381 168 425 17 44 57 145 90 225 55 135 129 325 346 885 187
485 214 544 265 572 15 9 88 12 240 13 l217 0 35 -32z m2602 -580 c-3 -7 -5
-2 -5 12 0 14 2 19 5 13 2 -7 2 -19 0 -25z m-3197 -28 c0 -5 -4 -10 -10 -10
-5 0 -10 5 -10 10 0 6 5 10 10 10 6 0 10 -4 10 -10z m1647 -242 c-3 -7 -5 -2
-5 12 0 14 2 19 5 13 2 -7 2 -19 0 -25z m-850 -150 c-3 -8 -6 -5 -6 6 -1 11 2
17 5 13 3 -3 4 -12 1 -19z m1788 12 c3 -5 1 -10 -4 -10 -6 0 -11 5 -11 10 0 6
2 10 4 10 3 0 8 -4 11 -10z m-658 -22 c-3 -8 -6 -5 -6 6 -1 11 2 17 5 13 3 -3
4 -12 1 -19z m953 -15 c-11 -17 -11 -17 -6 0 3 10 6 24 7 30 0 9 2 9 5 0 3 -7
0 -20 -6 -30z m-1056 -49 c3 -8 2 -12 -4 -9 -6 3 -10 10 -10 16 0 14 7 11 14
-7z m-45 -189 c2 17 5 23 7 15 3 -9 1 -33 -4 -55 -14 -68 -28 -12 -22 90 l5
90 5 -85 c4 -47 8 -71 9 -55z m8 113 c-3 -8 -6 -5 -6 6 -1 11 2 17 5 13 3 -3
4 -12 1 -19z m-1900 -20 c-3 -8 -6 -5 -6 6 -1 11 2 17 5 13 3 -3 4 -12 1 -19z
m943 -53 c6 14 8 8 7 -23 l-1 -43 -24 48 c-16 31 -21 48 -13 51 6 2 12 11 13
20 1 10 3 -3 6 -28 3 -35 6 -41 12 -25z m-957 6 l-6 -25 -9 23 c-9 25 -1 48
13 34 5 -5 6 -19 2 -32z m917 -2 c0 -5 -7 -9 -15 -9 -15 0 -20 12 -9 23 8 8
24 -1 24 -14z m-980 -4 c0 -8 -4 -15 -10 -15 -5 0 -10 7 -10 15 0 8 5 15 10
15 6 0 10 -7 10 -15z m210 -5 c12 -8 9 -10 -12 -10 -16 0 -28 5 -28 10 0 13
20 13 40 0z m587 -6 c-3 -3 -12 -4 -19 -1 -8 3 -5 6 6 6 11 1 17 -2 13 -5z
m80 0 c-3 -3 -12 -4 -19 -1 -8 3 -5 6 6 6 11 1 17 -2 13 -5z m2043 -4 c0 -5
-5 -10 -11 -10 -5 0 -7 5 -4 10 3 6 8 10 11 10 2 0 4 -4 4 -10z m-2927 -39 c3
-14 1 -18 -9 -14 -8 3 -14 0 -14 -6 0 -16 -73 -172 -78 -167 -2 3 12 39 32 81
20 42 36 83 36 90 0 42 23 53 33 16z m504 -100 c-14 -146 -91 -389 -216 -679
-37 -86 -78 -182 -90 -213 -17 -44 -28 -58 -47 -62 -13 -2 -26 -1 -28 2 -10
15 325 974 349 1001 27 30 38 14 32 -49z m180 28 c-4 -14 -2 -19 8 -15 10 3
12 -3 8 -25 -5 -33 3 -37 24 -11 13 15 13 15 3 -6 -6 -13 -8 -31 -4 -40 4 -9
8 -26 9 -37 1 -11 6 -29 10 -39 6 -13 5 -17 -2 -13 -17 10 -73 174 -67 192 9
22 17 18 11 -6z m-720 -41 c-3 -8 -6 -5 -6 6 -1 11 2 17 5 13 3 -3 4 -12 1
-19z m2000 -50 c-3 -8 -6 -5 -6 6 -1 11 2 17 5 13 3 -3 4 -12 1 -19z m-1732
-28 c3 -5 1 -10 -4 -10 -6 0 -11 5 -11 10 0 6 2 10 4 10 3 0 8 -4 11 -10z
m535 -31 c0 -5 -4 -9 -10 -9 -5 0 -10 7 -10 16 0 8 5 12 10 9 6 -3 10 -10 10
-16z m2386 -45 c75 -51 229 -180 314 -264 100 -99 181 -217 246 -356 55 -119
75 -195 99 -373 16 -118 17 -151 7 -280 -17 -213 -66 -389 -144 -523 -54 -90
-196 -236 -300 -305 -143 -95 -321 -172 -449 -192 -93 -15 -1410 -15 -1443 0
-31 14 -42 39 -18 39 9 0 312 0 672 0 718 0 739 1 923 60 205 66 459 259 541
411 117 217 174 592 131 854 -33 202 -75 303 -198 475 -117 164 -228 266 -450
411 -72 48 -83 58 -65 62 60 11 96 6 134 -19z m-1239 -6 c-3 -8 -6 -5 -6 6 -1
11 2 17 5 13 3 -3 4 -12 1 -19z m-1139 -19 c3 -11 2 -11 -7 1 -18 26 -13 -7 8
-46 12 -21 21 -30 24 -22 3 7 3 -4 0 -24 -4 -25 -2 -38 6 -38 6 0 11 -12 10
-27 l0 -28 -11 25 c-25 61 -58 156 -58 168 0 18 23 10 28 -9z m2312 -49 c45
-23 225 -165 284 -224 43 -43 110 -135 103 -142 -2 -3 -14 10 -27 28 -13 18
-52 58 -87 88 -36 30 -70 60 -76 65 -7 6 -65 50 -129 98 -65 48 -118 91 -118
97 0 14 5 13 50 -10z m-2950 -212 c-37 -90 -40 -96 -34 -63 7 34 46 126 52
120 2 -1 -6 -27 -18 -57z m726 -23 c20 -48 44 -128 40 -132 -3 -3 -63 160 -73
197 -4 17 14 -19 33 -65z m-772 -109 c-3 -15 -8 -25 -11 -23 -2 3 -1 17 3 31
3 15 8 25 11 23 2 -3 1 -17 -3 -31z m2290 -33 c-2 -16 -6 -265 -7 -556 l-2
-527 165 0 c183 0 241 10 338 59 138 70 262 234 282 373 9 59 9 57 5 -27 -4
-78 -10 -99 -40 -160 -79 -156 -216 -261 -374 -286 -81 -12 -425 -9 -438 5 -4
5 -3 10 2 12 9 4 10 214 2 901 l-2 222 35 4 c19 2 36 4 37 5 1 1 0 -10 -3 -25z
m-2333 -80 c-12 -20 -14 -14 -5 12 4 9 9 14 11 11 3 -2 0 -13 -6 -23z m899 -8
c0 -5 -5 -3 -10 5 -5 8 -10 20 -10 25 0 6 5 3 10 -5 5 -8 10 -19 10 -25z m587
-47 c-2 -13 -4 -5 -4 17 -1 22 1 32 4 23 2 -10 2 -28 0 -40z m-563 -14 c3 -8
2 -12 -4 -9 -6 3 -10 10 -10 16 0 14 7 11 14 -7z m-1511 -249 c-8 -22 -22 -18
-16 5 3 11 9 17 14 15 4 -3 6 -12 2 -20z m478 -8 c-10 -9 -11 -8 -5 6 3 10 9
15 12 12 3 -3 0 -11 -7 -18z m1059 -2 c21 -4 41 -13 44 -21 5 -12 -73 -14
-544 -14 -337 0 -550 4 -550 9 0 6 6 13 13 18 25 17 943 24 1037 8z m-1605
-176 c-31 -85 -60 -158 -64 -164 -5 -5 -27 -62 -50 -125 -74 -199 -156 -388
-138 -315 5 21 71 187 151 383 25 63 46 125 46 138 0 14 4 22 10 19 6 -3 10 2
10 13 0 11 14 52 31 93 17 41 35 85 40 98 5 13 12 21 15 18 3 -3 -20 -74 -51
-158z m3772 79 c-3 -8 -6 -5 -6 6 -1 11 2 17 5 13 3 -3 4 -12 1 -19z m-2319
-75 c-174 -2 -462 -2 -640 0 -178 1 -35 2 317 2 352 0 497 -1 323 -2z m782
-550 c0 -12 -9 -27 -19 -32 -26 -14 -1835 -15 -1860 -1 -10 5 -21 18 -24 29
-4 16 1 21 22 23 14 2 443 3 954 3 l927 0 0 -22z"/>
<path d="M5221 5846 c2 -2 18 -6 34 -10 22 -5 26 -4 15 4 -14 9 -59 15 -49 6z"/>
<path d="M4391 5564 c0 -11 3 -14 6 -6 3 7 2 16 -1 19 -3 4 -6 -2 -5 -13z"/>
<path d="M4935 5476 c-5 -11 -10 -209 -12 -439 l-5 -417 64 67 c34 38 106 113
158 168 89 93 160 184 160 205 0 4 5 10 11 12 7 2 9 13 5 25 -7 23 -14 30
-227 249 -131 135 -148 150 -154 130z"/>
<path d="M5812 5030 c0 -14 2 -19 5 -12 2 6 2 18 0 25 -3 6 -5 1 -5 -13z"/>
<path d="M4578 4825 c2 -14 6 -25 8 -25 2 0 4 11 4 25 0 14 -4 25 -9 25 -4 0
-6 -11 -3 -25z"/>
<path d="M2896 5665 c-3 -8 -1 -15 4 -15 6 0 10 7 10 15 0 8 -2 15 -4 15 -2 0
-6 -7 -10 -15z"/>
<path d="M2866 5572 c-4 -13 -5 -26 -2 -29 10 -11 18 4 14 29 l-4 23 -8 -23z"/>
<path d="M2846 5525 c2 -11 4 -24 4 -30 0 -5 5 -3 10 5 12 19 13 33 1 25 -5
-3 -11 0 -14 7 -2 7 -3 4 -1 -7z"/>
<path d="M2816 5438 c6 -29 5 -31 -10 -19 -14 12 -16 11 -16 -3 0 -10 5 -14
10 -11 6 3 10 -2 11 -12 0 -16 1 -16 9 2 12 29 12 75 -1 75 -7 0 -8 -11 -3
-32z"/>
<path d="M2764 5359 c-3 -6 -1 -16 5 -22 8 -8 11 -5 11 11 0 24 -5 28 -16 11z"/>
<path d="M3400 4850 c-9 -6 -10 -10 -3 -10 6 0 15 5 18 10 8 12 4 12 -15 0z"/>
<path d="M3200 4835 c0 -20 66 -20 100 0 24 14 22 14 -37 15 -50 0 -63 -3 -63
-15z"/>
<path d="M3361 4788 c-1 -13 -10 -18 -28 -18 -27 -1 -27 -1 -9 -15 27 -20 49
-19 77 5 l24 20 -27 -6 c-20 -4 -27 -1 -31 13 -4 16 -5 16 -6 1z"/>
<path d="M3450 4756 c0 -14 5 -26 10 -26 6 0 10 9 10 19 0 11 -4 23 -10 26 -6
4 -10 -5 -10 -19z"/>
<path d="M2755 4763 c22 -3 42 -9 45 -14 4 -5 15 -3 26 6 17 13 13 14 -46 13
-45 -1 -53 -3 -25 -5z"/>
<path d="M3027 4757 c4 -7 -1 -8 -13 -3 -15 6 -17 5 -6 -5 10 -11 15 -10 28 2
13 14 13 16 0 16 -8 0 -12 -5 -9 -10z"/>
<path d="M3115 4750 c-8 -13 9 -20 24 -11 10 6 9 10 -3 14 -8 3 -18 2 -21 -3z"/>
<path d="M2892 4730 c0 -14 2 -19 5 -12 2 6 2 18 0 25 -3 6 -5 1 -5 -13z"/>
<path d="M3045 4730 c3 -5 8 -10 11 -10 2 0 4 5 4 10 0 6 -5 10 -11 10 -5 0
-7 -4 -4 -10z"/>
<path d="M2592 4710 c0 -14 2 -19 5 -12 2 6 2 18 0 25 -3 6 -5 1 -5 -13z"/>
<path d="M3130 4681 c-8 -6 -18 -7 -24 -4 -5 3 -6 1 -2 -6 4 -6 11 -9 16 -6 4
3 18 -7 29 -22 12 -16 18 -20 15 -10 -7 21 11 23 20 2 3 -8 -2 -18 -11 -23
-11 -6 -12 -11 -4 -16 6 -4 11 -1 12 6 1 16 17 -22 18 -42 1 -13 0 -13 -9 0
-9 13 -10 13 -10 -1 0 -8 6 -24 14 -35 15 -19 15 -19 15 1 -1 11 3 31 7 44 5
17 4 22 -4 17 -12 -7 -15 5 -14 58 0 18 -3 24 -8 16 -6 -10 -9 -9 -13 1 -4 12
-7 11 -16 -1 -10 -13 -11 -13 -12 0 -1 8 -1 18 0 23 1 9 -1 9 -19 -2z"/>
<path d="M2892 4625 c0 -16 2 -22 5 -12 2 9 2 23 0 30 -3 6 -5 -1 -5 -18z"/>
<path d="M3126 4637 c3 -10 9 -15 12 -12 3 3 0 11 -7 18 -10 9 -11 8 -5 -6z"/>
<path d="M2830 4626 c0 -9 5 -16 10 -16 6 0 10 4 10 9 0 6 -4 13 -10 16 -5 3
-10 -1 -10 -9z"/>
<path d="M2855 4599 c-4 -6 -5 -12 -2 -15 2 -3 7 2 10 11 7 17 1 20 -8 4z"/>
<path d="M2864 4566 c-5 -12 -9 -14 -14 -6 -5 8 -9 4 -13 -9 -3 -12 -1 -19 3
-16 5 3 11 -3 13 -12 4 -15 5 -15 6 3 0 11 6 25 13 32 6 6 9 15 5 18 -4 4 -10
-1 -13 -10z"/>
<path d="M2805 4440 c-3 -5 -2 -18 4 -27 7 -14 9 -12 8 10 -2 30 -3 31 -12 17z"/>
<path d="M450 716 c0 -11 48 -84 61 -91 6 -4 3 5 -7 21 -26 42 -54 78 -54 70z"/>
<path d="M2232 8019 c4 -11 34 -14 152 -14 81 0 150 3 153 8 2 4 -59 7 -136 7
-76 0 -147 3 -157 7 -12 4 -15 2 -12 -8z"/>
<path d="M2560 8010 c0 -5 7 -10 15 -10 8 0 15 5 15 10 0 6 -7 10 -15 10 -8 0
-15 -4 -15 -10z"/>
<path d="M6095 8010 c-3 -5 1 -10 9 -10 9 0 16 5 16 10 0 6 -4 10 -9 10 -6 0
-13 -4 -16 -10z"/>
<path d="M2738 8003 c12 -2 32 -2 45 0 12 2 2 4 -23 4 -25 0 -35 -2 -22 -4z"/>
<path d="M2888 8003 c7 -3 16 -2 19 1 4 3 -2 6 -13 5 -11 0 -14 -3 -6 -6z"/>
<path d="M3048 8003 c7 -3 16 -2 19 1 4 3 -2 6 -13 5 -11 0 -14 -3 -6 -6z"/>
<path d="M5618 8003 c12 -2 30 -2 40 0 9 3 -1 5 -23 4 -22 0 -30 -2 -17 -4z"/>
<path d="M5783 8003 c9 -2 23 -2 30 0 6 3 -1 5 -18 5 -16 0 -22 -2 -12 -5z"/>
<path d="M5938 8003 c7 -3 16 -2 19 1 4 3 -2 6 -13 5 -11 0 -14 -3 -6 -6z"/>
<path d="M1663 7963 c15 -2 37 -2 50 0 12 2 0 4 -28 4 -27 0 -38 -2 -22 -4z"/>
<path d="M1835 7960 c3 -5 17 -10 31 -10 13 0 24 5 24 10 0 6 -14 10 -31 10
-17 0 -28 -4 -24 -10z"/>
<path d="M2091 7966 c10 -9 119 -15 119 -6 0 6 -28 10 -62 10 -34 0 -59 -2
-57 -4z"/>
<path d="M2438 7963 c17 -2 47 -2 65 0 17 2 3 4 -33 4 -36 0 -50 -2 -32 -4z"/>
<path d="M2620 7960 c20 -13 60 -13 60 0 0 6 -17 10 -37 10 -28 0 -34 -3 -23
-10z"/>
<path d="M2728 7963 c7 -3 16 -2 19 1 4 3 -2 6 -13 5 -11 0 -14 -3 -6 -6z"/>
<path d="M2788 7963 c12 -2 32 -2 45 0 12 2 2 4 -23 4 -25 0 -35 -2 -22 -4z"/>
<path d="M2898 7963 c7 -3 16 -2 19 1 4 3 -2 6 -13 5 -11 0 -14 -3 -6 -6z"/>
<path d="M2948 7963 c12 -2 32 -2 45 0 12 2 2 4 -23 4 -25 0 -35 -2 -22 -4z"/>
<path d="M3125 7960 c-3 -5 3 -10 14 -10 11 0 23 5 26 10 3 6 -3 10 -14 10
-11 0 -23 -4 -26 -10z"/>
<path d="M3438 7963 c12 -2 30 -2 40 0 9 3 -1 5 -23 4 -22 0 -30 -2 -17 -4z"/>
<path d="M3538 7963 c7 -3 16 -2 19 1 4 3 -2 6 -13 5 -11 0 -14 -3 -6 -6z"/>
<path d="M4205 7960 c45 -11 85 -11 85 0 0 6 -25 9 -57 9 -48 -1 -53 -3 -28
-9z"/>
<path d="M4322 7964 c10 -9 118 -11 118 -2 0 4 -28 8 -62 8 -34 0 -59 -3 -56
-6z"/>
<path d="M4548 7963 c7 -3 16 -2 19 1 4 3 -2 6 -13 5 -11 0 -14 -3 -6 -6z"/>
<path d="M4668 7963 c7 -3 16 -2 19 1 4 3 -2 6 -13 5 -11 0 -14 -3 -6 -6z"/>
<path d="M4858 7957 c39 -7 56 -7 65 2 8 8 -5 11 -53 10 l-65 -2 53 -10z"/>
<path d="M5131 7966 c11 -10 119 -17 119 -7 0 7 -24 11 -62 11 -34 0 -59 -2
-57 -4z"/>
<path d="M5281 7966 c7 -8 118 -10 126 -3 3 4 -24 7 -62 7 -38 0 -66 -2 -64
-4z"/>
<path d="M5958 7963 c17 -2 47 -2 65 0 17 2 3 4 -33 4 -36 0 -50 -2 -32 -4z"/>
<path d="M6088 7963 c6 -2 18 -2 25 0 6 3 1 5 -13 5 -14 0 -19 -2 -12 -5z"/>
<path d="M6265 7960 c28 -12 105 -12 105 0 0 6 -27 10 -62 9 -45 0 -57 -3 -43
-9z"/>
<path d="M6488 7963 c12 -2 30 -2 40 0 9 3 -1 5 -23 4 -22 0 -30 -2 -17 -4z"/>
<path d="M6908 7933 c7 -3 16 -2 19 1 4 3 -2 6 -13 5 -11 0 -14 -3 -6 -6z"/>
</g>
</svg>
